<mxfile host="app.diagrams.net" modified="2023-01-09T09:12:10.094Z" agent="5.0 (Macintosh; Intel Mac OS X 10_14_6) AppleWebKit/537.36 (KHTML, like Gecko) Chrome/108.0.0.0 Safari/537.36" version="20.8.3" etag="5nKhy6ndzrAXd_mVxAyV" type="github">
  <diagram id="5XJ6cl70WtAlI0whU5AC" name="第 1 页">
    <mxGraphModel dx="1081" dy="1072" grid="1" gridSize="10" guides="1" tooltips="1" connect="1" arrows="1" fold="1" page="1" pageScale="1" pageWidth="827" pageHeight="1169" math="0" shadow="0">
      <root>
        <mxCell id="0" />
        <mxCell id="1" parent="0" />
        <mxCell id="3X-S7qRKHkHSU5lgg32S-1" value="data1" style="rounded=1;whiteSpace=wrap;html=1;strokeWidth=2;fillWeight=4;hachureGap=8;hachureAngle=45;fillColor=#d5e8d4;strokeColor=#82b366;fontSize=15;fontStyle=1" vertex="1" parent="1">
          <mxGeometry x="920" y="440" width="80" height="80" as="geometry" />
        </mxCell>
        <mxCell id="3X-S7qRKHkHSU5lgg32S-2" value="hashA" style="rounded=1;whiteSpace=wrap;html=1;strokeWidth=2;fillWeight=4;hachureGap=8;hachureAngle=45;fillColor=#d5e8d4;strokeColor=#82b366;fontSize=15;fontStyle=1" vertex="1" parent="1">
          <mxGeometry x="920" y="600" width="80" height="40" as="geometry" />
        </mxCell>
        <mxCell id="3X-S7qRKHkHSU5lgg32S-7" value="" style="endArrow=classic;html=1;rounded=0;strokeWidth=2;" edge="1" parent="1">
          <mxGeometry width="50" height="50" relative="1" as="geometry">
            <mxPoint x="959.5" y="530" as="sourcePoint" />
            <mxPoint x="959.5" y="590" as="targetPoint" />
          </mxGeometry>
        </mxCell>
        <mxCell id="3X-S7qRKHkHSU5lgg32S-8" value="摘要算法" style="text;strokeColor=none;fillColor=none;html=1;fontSize=15;fontStyle=1;verticalAlign=middle;align=center;rounded=1;" vertex="1" parent="1">
          <mxGeometry x="980" y="540" width="80" height="40" as="geometry" />
        </mxCell>
        <mxCell id="3X-S7qRKHkHSU5lgg32S-9" value="" style="endArrow=classic;html=1;rounded=0;strokeWidth=2;fontSize=15;" edge="1" parent="1">
          <mxGeometry width="50" height="50" relative="1" as="geometry">
            <mxPoint x="1150" y="560" as="sourcePoint" />
            <mxPoint x="1610" y="560" as="targetPoint" />
          </mxGeometry>
        </mxCell>
        <mxCell id="3X-S7qRKHkHSU5lgg32S-10" value="data2" style="rounded=1;whiteSpace=wrap;html=1;strokeWidth=2;fillWeight=4;hachureGap=8;hachureAngle=45;fillColor=#f8cecc;strokeColor=#b85450;fontSize=15;fontStyle=1" vertex="1" parent="1">
          <mxGeometry x="1720" y="440" width="80" height="80" as="geometry" />
        </mxCell>
        <mxCell id="3X-S7qRKHkHSU5lgg32S-11" value="hashB2" style="rounded=1;whiteSpace=wrap;html=1;strokeWidth=2;fillWeight=4;hachureGap=8;hachureAngle=45;fillColor=#dae8fc;strokeColor=#6c8ebf;fontSize=15;fontStyle=1" vertex="1" parent="1">
          <mxGeometry x="1720" y="600" width="80" height="40" as="geometry" />
        </mxCell>
        <mxCell id="3X-S7qRKHkHSU5lgg32S-12" value="" style="endArrow=classic;html=1;rounded=0;strokeWidth=2;" edge="1" parent="1">
          <mxGeometry width="50" height="50" relative="1" as="geometry">
            <mxPoint x="1759.5" y="530" as="sourcePoint" />
            <mxPoint x="1759.5" y="590" as="targetPoint" />
          </mxGeometry>
        </mxCell>
        <mxCell id="3X-S7qRKHkHSU5lgg32S-13" value="摘要算法" style="text;strokeColor=none;fillColor=none;html=1;fontSize=15;fontStyle=1;verticalAlign=middle;align=center;rounded=1;" vertex="1" parent="1">
          <mxGeometry x="1770" y="540" width="80" height="40" as="geometry" />
        </mxCell>
        <mxCell id="3X-S7qRKHkHSU5lgg32S-14" value="data1" style="rounded=1;whiteSpace=wrap;html=1;strokeWidth=2;fillWeight=4;hachureGap=8;hachureAngle=45;fillColor=#d5e8d4;strokeColor=#82b366;fontSize=15;fontStyle=1" vertex="1" parent="1">
          <mxGeometry x="1161" y="400" width="80" height="80" as="geometry" />
        </mxCell>
        <mxCell id="3X-S7qRKHkHSU5lgg32S-15" value="hashA" style="rounded=1;whiteSpace=wrap;html=1;strokeWidth=2;fillWeight=4;hachureGap=8;hachureAngle=45;fillColor=#d5e8d4;strokeColor=#82b366;fontSize=15;fontStyle=1" vertex="1" parent="1">
          <mxGeometry x="1161" y="480" width="80" height="40" as="geometry" />
        </mxCell>
        <mxCell id="3X-S7qRKHkHSU5lgg32S-17" value="data2" style="rounded=1;whiteSpace=wrap;html=1;strokeWidth=2;fillWeight=4;hachureGap=8;hachureAngle=45;fillColor=#f8cecc;strokeColor=#b85450;fontSize=15;fontStyle=1" vertex="1" parent="1">
          <mxGeometry x="1480" y="400" width="80" height="80" as="geometry" />
        </mxCell>
        <mxCell id="3X-S7qRKHkHSU5lgg32S-18" value="hashB" style="rounded=1;whiteSpace=wrap;html=1;strokeWidth=2;fillWeight=4;hachureGap=8;hachureAngle=45;fillColor=#f8cecc;strokeColor=#b85450;fontSize=15;fontStyle=1" vertex="1" parent="1">
          <mxGeometry x="1480" y="480" width="80" height="40" as="geometry" />
        </mxCell>
        <mxCell id="3X-S7qRKHkHSU5lgg32S-19" value="" style="endArrow=classic;html=1;rounded=0;strokeWidth=2;fontSize=15;" edge="1" parent="1">
          <mxGeometry width="50" height="50" relative="1" as="geometry">
            <mxPoint x="1220" y="540" as="sourcePoint" />
            <mxPoint x="1300" y="620" as="targetPoint" />
          </mxGeometry>
        </mxCell>
        <mxCell id="3X-S7qRKHkHSU5lgg32S-20" value="中间人" style="rounded=1;whiteSpace=wrap;html=1;strokeWidth=2;fillWeight=4;hachureGap=8;hachureAngle=45;fillColor=#f8cecc;strokeColor=#b85450;fontSize=15;fontStyle=1" vertex="1" parent="1">
          <mxGeometry x="1320" y="600" width="80" height="40" as="geometry" />
        </mxCell>
        <mxCell id="3X-S7qRKHkHSU5lgg32S-22" value="" style="endArrow=classic;html=1;rounded=0;strokeWidth=2;fontSize=15;" edge="1" parent="1">
          <mxGeometry width="50" height="50" relative="1" as="geometry">
            <mxPoint x="1420" y="620" as="sourcePoint" />
            <mxPoint x="1500" y="540" as="targetPoint" />
          </mxGeometry>
        </mxCell>
        <mxCell id="3X-S7qRKHkHSU5lgg32S-27" value="hashB" style="rounded=1;whiteSpace=wrap;html=1;strokeWidth=2;fillWeight=4;hachureGap=8;hachureAngle=45;fillColor=#f8cecc;strokeColor=#b85450;fontSize=15;fontStyle=1" vertex="1" parent="1">
          <mxGeometry x="1880" y="600" width="80" height="40" as="geometry" />
        </mxCell>
        <mxCell id="3X-S7qRKHkHSU5lgg32S-28" value="" style="endArrow=classic;startArrow=classic;html=1;rounded=0;strokeWidth=2;fontSize=15;" edge="1" parent="1">
          <mxGeometry width="50" height="50" relative="1" as="geometry">
            <mxPoint x="1810" y="620" as="sourcePoint" />
            <mxPoint x="1870" y="620" as="targetPoint" />
          </mxGeometry>
        </mxCell>
        <mxCell id="3X-S7qRKHkHSU5lgg32S-29" value="比较" style="text;strokeColor=none;fillColor=none;html=1;fontSize=15;fontStyle=1;verticalAlign=middle;align=center;rounded=1;" vertex="1" parent="1">
          <mxGeometry x="1820" y="580" width="40" height="40" as="geometry" />
        </mxCell>
      </root>
    </mxGraphModel>
  </diagram>
</mxfile>
